<svg xmlns="http://www.w3.org/2000/svg" width="400" height="113.252"><g fill-rule="evenodd"><path d="M199.167.5c-.114.275-.259.5-.322.5s-.253.319-.423.708c-.17.39-.36.746-.422.792-.061.046-.402.608-.756 1.25s-.704 1.192-.777 1.222a.232.232 0 0 0-.134.197c0 .143-1.164 2.18-1.333 2.331-.051.046-.233.402-.405.792-.172.389-.362.708-.423.708-.06 0-.213.262-.339.583-.126.321-.278.584-.339.584-.06 0-.251.318-.422.708-.172.39-.353.746-.402.792-.209.194-1.337 2.149-1.337 2.316 0 .101-.067.184-.15.184-.082 0-.289.337-.458.749-.17.412-.355.75-.413.75-.058 0-.198.226-.312.501-.114.275-.258.5-.319.5-.062 0-.252.337-.422.75-.17.412-.364.75-.431.75-.066 0-.219.243-.34.541-.12.298-.273.58-.339.626-.159.112-.908 1.429-1.255 2.208-.153.343-.333.625-.401.625s-.246.281-.396.625c-.15.343-.493.962-.762 1.375-.269.412-.6.992-.735 1.288-.136.295-.327.633-.426.75-.357.423-.941 1.391-1.159 1.92-.122.298-.282.542-.356.542-.073 0-.22.262-.326.583-.106.321-.253.583-.328.583-.074 0-.259.282-.411.625-.269.61-.931 1.782-1.206 2.135-.136.174-.479.77-1.097 1.907-.174.321-.534.921-.8 1.333a12.196 12.196 0 0 0-.755 1.375c-.149.344-.328.625-.396.625s-.262.338-.432.75c-.17.413-.36.75-.422.75s-.205.225-.319.5c-.114.275-.259.5-.322.5s-.253.319-.423.709c-.17.389-.36.745-.422.791-.061.046-.401.609-.755 1.25-.353.642-.686 1.205-.74 1.25-.054.046-.238.402-.41.792s-.376.708-.454.708a.145.145 0 0 0-.141.147c0 .147-1.033 1.958-1.295 2.27-.077.092-.248.41-.38.708s-.301.542-.376.542c-.074 0-.089.075-.032.167.056.091.028.166-.063.166s-.261.263-.377.584c-.116.32-.259.583-.319.583-.059 0-.25.318-.424.707-.175.389-.449.839-.609 1-.16.161-.292.405-.292.543 0 .137-.056.251-.125.252-.068.001-.274.32-.455.708-.182.389-.376.744-.43.79-.054.046-.275.402-.491.792l-.393.708.388.708c.214.39.478.821.587.959.109.137.294.493.412.791.118.298.275.542.348.542.073 0 .22.262.326.583.106.321.254.584.328.584.075 0 .26.281.411.625.271.613.935 1.788 1.207 2.133.225.286.693 1.11 1.06 1.867.188.389.399.708.468.708s.221.263.337.583c.116.321.271.584.344.584.073 0 .262.337.419.75.158.412.348.75.423.75.076 0 .215.225.311.5s.254.5.35.5c.096 0 .162.056.145.125-.016.068.109.403.278.744.308.619-.017 2.631-.425 2.631-.069 0-.221.375-.339.833-.117.458-.272.833-.344.833-.072 0-.25.413-.397.917-.146.504-.33.917-.408.917-.078 0-.193.235-.256.522-.063.288-.289.869-.501 1.292-.212.423-.441.991-.508 1.263-.273 1.092-.702.97-1.303-.37-.175-.389-.363-.707-.418-.707-.055 0-.208-.244-.338-.542-.131-.298-.478-.885-.772-1.304a14.335 14.335 0 0 1-.826-1.333c-.161-.314-.338-.609-.395-.655-.056-.046-.214-.308-.351-.583-.137-.275-.289-.538-.338-.583-.049-.046-.422-.646-.829-1.334-.407-.687-.779-1.287-.828-1.333-.049-.046-.201-.308-.338-.583-.138-.275-.299-.538-.36-.584-.138-.105-.899-1.428-1.174-2.041-.113-.252-.264-.459-.334-.459s-.244-.278-.387-.619c-.142-.34-.315-.659-.385-.708-.187-.132-1.027-1.621-1.027-1.82 0-.165.641-1.214 1.008-1.648.098-.117.29-.454.425-.75s.465-.875.732-1.288c.266-.413.61-.994.762-1.292.153-.298.326-.541.385-.541.058 0 .213-.244.342-.542.13-.298.288-.579.352-.625.064-.046.278-.383.476-.75.556-1.03 1.044-1.825 1.175-1.917.066-.045.226-.327.355-.625.13-.298.281-.541.337-.541.055 0 .243-.318.417-.707.175-.389.449-.839.609-1 .16-.161.292-.406.292-.543 0-.138.063-.25.141-.25.078 0 .277-.3.442-.667.165-.367.353-.667.417-.667s.255-.337.425-.75c.17-.412.36-.75.422-.75s.205-.225.319-.5c.114-.275.264-.5.334-.5.069 0 .222-.231.339-.514.117-.283.301-.602.408-.71.202-.202.381-.506 1.078-1.832.224-.427.468-.777.541-.777.074 0 .134-.076.134-.17 0-.093.204-.487.455-.875.677-1.05.828-1.304 1.238-2.08.205-.39.433-.708.507-.708.073 0 .133-.15.133-.334 0-.33-.111-.333-12.747-.333h-12.746l-.356.698c-.196.384-.46.801-.587.928-.126.127-.276.413-.332.636-.056.222-.163.405-.238.405-.075 0-.269.3-.431.666-.161.367-.343.667-.403.667s-.245.3-.41.667c-.165.366-.35.666-.411.666s-.213.263-.339.584c-.126.32-.278.583-.339.583s-.246.3-.411.667c-.165.366-.355.666-.422.666-.066 0-.219.244-.34.542-.12.298-.27.579-.331.625-.062.046-.271.397-.466.78-.666 1.315-.691 1.155-.691-4.437V39h-22.833v43.974l-.5-.249c-.275-.137-.5-.319-.5-.404 0-.085-.079-.154-.176-.154-.926 0-5.28-4.5-7.016-7.25-.289-.459-.683-1.077-.875-1.374l-.35-.541-23.698-.001c-24.457-.001-24.296-.006-23.611.658.17.165.646.694 1.059 1.175.412.482.922 1.068 1.132 1.303.21.234.585.687.833 1.005.248.318.639.78.868 1.026.23.246.717.812 1.084 1.258.366.447.969 1.127 1.339 1.513.37.385.777.894.903 1.13.126.236.405.544.619.684.214.14.389.327.389.415 0 .088.281.468.625.846l.958 1.053c.183.202.547.625.808.942a113.18 113.18 0 0 0 2.4 2.796c.207.225.375.474.375.553 0 .078 14.888.142 33.084.142H144v-5.354c0-5.713.033-5.903.75-4.314.165.368.364.668.442.668.078 0 .141.112.141.25 0 .137.132.382.292.543.16.161.434.611.609 1 .174.389.362.707.417.707.056 0 .209.244.341.542.132.298.303.616.381.708.291.343 1.298 2.001 1.389 2.287.051.163.156.296.231.296.076 0 .183.183.239.405.056.223.206.509.332.636.127.127.391.544.586.927l.356.697 17.603.043 17.604.042.643 1.059c.354.582.644 1.12.644 1.196 0 .076.107.245.237.375s.374.503.542.829c.167.325.679 1.242 1.138 2.037a89.27 89.27 0 0 1 1.067 1.891c.129.246.287.484.353.53.065.046.297.415.516.819.218.405.599 1.08.846 1.5.247.421.535.971.641 1.223.106.252.252.458.325.458.073 0 .255.281.405.625.15.344.491.962.759 1.375.268.412.643 1.05.834 1.417.674 1.292.89 1.667 1.007 1.75.065.045.297.414.516.819.219.405.598 1.08.844 1.5.246.42.532.95.635 1.177.104.228.251.453.326.5.075.048.276.356.448.684.171.329.456.872.634 1.209.366.694.78.785 1.075.236.111-.207.383-.675.604-1.042.221-.367.565-.967.764-1.333.199-.367.413-.705.474-.75.062-.046.211-.327.331-.625.121-.298.28-.542.355-.542.074 0 .183-.152.242-.337.059-.185.399-.804.756-1.375.358-.571.78-1.301.938-1.621.158-.321.336-.621.396-.667.06-.046.249-.383.419-.75.171-.367.407-.766.525-.887.118-.121.215-.284.215-.363 0-.079.094-.242.208-.363.115-.121.359-.52.542-.887.183-.367.371-.704.417-.75.196-.194 1.144-1.834 1.245-2.152.06-.192.165-.348.231-.348.067 0 .261-.338.431-.75.17-.413.364-.75.431-.75.066 0 .221-.244.343-.542.123-.298.35-.68.507-.849.156-.17.329-.491.385-.713.056-.222.25-.553.431-.734.181-.181.329-.441.329-.579 0-.137.067-.25.15-.25.082 0 .289-.337.458-.749.17-.412.364-.75.431-.75.068 0 .228-.253.357-.561.129-.308.371-.72.539-.917l.305-.356h18.047c10.994 0 18.046-.06 18.046-.155 0-.085.094-.254.208-.375.115-.121.342-.483.504-.803.162-.321.511-.959.775-1.417.263-.458.637-1.133.831-1.5.465-.877.911-1.646 1.017-1.75.047-.046.234-.383.417-.75.182-.367.37-.704.416-.75.047-.046.234-.371.417-.722.182-.351.388-.675.457-.718.068-.044.125 1.95.125 4.43v4.51h66.672l.455-.517.706-.798c.137-.155.503-.578.813-.941a223.346 223.346 0 0 1 2.52-2.926c.486-.543.715-.813 1.473-1.729.578-.697 1.804-2.108 2.527-2.907.23-.253.717-.813 1.084-1.245.366-.431.879-1.025 1.139-1.319.26-.294.673-.793.917-1.108.244-.316.594-.734.777-.929 1.392-1.486 1.617-1.78 1.473-1.925-.098-.097-9.165-.141-23.88-.115l-23.723.042-.435.834c-.239.458-.519.887-.621.954-.103.067-.281.348-.396.625-.115.277-.258.504-.319.504s-.249.235-.419.523c-.367.62-.415.676-2.072 2.4-1.324 1.379-3.538 3.244-3.849 3.244a.172.172 0 0 0-.176.167c0 .092-.3.297-.666.456-.367.159-.667.346-.667.416s-.075.127-.167.127c-.11 0-.166-7.5-.166-22.166V39H253.852l-.926 1.65c-.509.907-.926 1.732-.926 1.833 0 .101-.064.184-.141.184-.078 0-.282.318-.454.708-.172.39-.36.746-.419.792-.173.135-.724 1.239-.687 1.375.019.068-.026.125-.1.125-.073 0-.43.575-.791 1.278l-.658 1.279-.044-4.612-.045-4.612h-22.828v2.5c0 2.547-.101 2.955-.477 1.917-.116-.321-.271-.584-.344-.584-.073 0-.262-.337-.42-.75-.157-.412-.35-.75-.428-.75-.078 0-.191-.156-.252-.347-.103-.324-1.055-1.967-1.247-2.153-.048-.046-.236-.401-.418-.789-.181-.389-.377-.708-.435-.709-.058-.001-.198-.227-.312-.502-.114-.275-.258-.5-.32-.5s-.208-.261-.323-.581c-.116-.32-.303-.676-.415-.792-.113-.115-.337-.473-.498-.793a22.67 22.67 0 0 0-.809-1.417 37.757 37.757 0 0 1-.877-1.5c-.575-1.06-.834-1.494-.944-1.583-.056-.046-.264-.384-.462-.75a49.156 49.156 0 0 0-.854-1.5c-.272-.459-.576-1.02-.674-1.247-.098-.227-.238-.452-.312-.5-.074-.048-.313-.416-.531-.818-.571-1.049-.775-1.397-1.014-1.73a8.392 8.392 0 0 1-.464-.77c-.704-1.323-1.058-1.943-1.15-2.019-.146-.118-.621-.961-1.01-1.791-.182-.39-.394-.709-.47-.709-.077 0-.234-.262-.35-.583-.116-.321-.271-.583-.344-.583-.074 0-.263-.338-.42-.75-.158-.413-.35-.75-.428-.75-.078 0-.192-.157-.252-.348-.103-.324-1.055-1.966-1.248-2.152-.047-.046-.235-.402-.417-.79-.182-.389-.378-.707-.435-.708-.058-.001-.198-.227-.312-.502-.114-.275-.258-.5-.32-.5-.063 0-.208-.262-.324-.582-.115-.32-.299-.676-.408-.792-.199-.21-.672-1.035-1.221-2.126-.161-.321-.346-.621-.41-.667-.064-.046-.298-.421-.519-.833-.58-1.083-.857-1.544-1.064-1.771-.1-.111-.283-.451-.407-.757s-.269-.593-.322-.639c-.053-.046-.355-.515-.67-1.042-.644-1.077-1.025-1.208-1.335-.458m1.824 8.958c.5.894.95 1.663 1.001 1.709.05.046.204.308.341.583.138.275.296.537.353.583.056.046.262.384.457.75.195.367.542.967.771 1.334.229.366.549.929.71 1.25.161.32.375.67.475.777.1.107.283.444.407.75s.268.593.319.639c.195.172 1.342 2.141 1.342 2.303 0 .093.064.195.142.225.128.05 1.135 1.747 1.89 3.184.156.296.363.629.46.74.096.112.268.412.38.667.112.256.252.502.31.548.059.046.271.383.473.75.202.367.531.938.731 1.27.2.332.739 1.258 1.197 2.059.458.8.999 1.729 1.202 2.063.203.334.487.833.631 1.108.144.275.495.875.78 1.333.285.459.676 1.11.869 1.448.193.338.689 1.191 1.101 1.895.413.704.938 1.606 1.167 2.005.229.399.754 1.296 1.167 1.994.412.698.89 1.544 1.061 1.88.171.337.365.649.43.695.065.046.233.308.374.583.25.489 1.517 2.673 2.256 3.889.406.668 1.765 3.04 2.295 4.005.184.333.377.644.429.69.053.045.353.554.667 1.131l.571 1.047.083-7.131.084-7.131h18.666l.084 7.477.083 7.477.833-1.477c.459-.812.858-1.57.888-1.685.029-.115.108-.208.174-.208.067 0 .216-.262.332-.582.115-.32.302-.676.415-.792.113-.115.359-.51.548-.876.803-1.559.956-1.838 1.047-1.917.053-.046.229-.346.392-.667.162-.321.507-.958.766-1.416.26-.459.725-1.314 1.035-1.902.31-.587.641-1.15.736-1.25.095-.1.315-.5.487-.89.173-.39.369-.708.436-.708s.161-.151.21-.335c.086-.331.196-.334 10.561-.292l10.473.043.043 23.209.042 23.208h-18.831l-.044-7.375-.043-7.375-1.417 2.5c-.779 1.375-1.446 2.575-1.483 2.667a.703.703 0 0 1-.176.25c-.061.045-.399.608-.753 1.25-.353.641-.691 1.204-.749 1.25-.059.045-.209.333-.333.639-.123.306-.307.643-.407.75-.1.107-.332.488-.515.847-.544 1.064-.827 1.574-1.048 1.886-.115.162-.339.532-.497.822l-.667 1.208-.378.681-19.122.003c-10.517.001-19.197.057-19.289.125-.091.067-.279.347-.416.622-.137.275-.29.537-.34.583-.1.092-2.036 3.478-2.143 3.749a.688.688 0 0 1-.177.251c-.06.046-.399.609-.752 1.25-.354.642-.687 1.204-.74 1.25-.054.046-.232.346-.395.667-.3.588-.585 1.086-1.953 3.409-.412.7-.9 1.547-1.083 1.883a9.11 9.11 0 0 1-.469.784c-.074.096-.496.812-.937 1.591-.932 1.647-1.245 1.78-1.761.75-.183-.367-.38-.705-.436-.75-.056-.046-.265-.384-.465-.75a43.105 43.105 0 0 0-.761-1.334c-.478-.795-.844-1.424-1.469-2.519a73.285 73.285 0 0 0-.869-1.481 25.61 25.61 0 0 1-.667-1.166c-.144-.275-.48-.838-.747-1.25a19.468 19.468 0 0 1-.825-1.417 21.187 21.187 0 0 0-.758-1.333 75.618 75.618 0 0 1-1.175-2c-.858-1.51-1.037-1.811-1.464-2.458l-.303-.459h-18.744c-17.7 0-18.75-.016-18.85-.292-.059-.16-.3-.593-.537-.961a41.067 41.067 0 0 1-1.22-1.978c-.207-.356-.452-.77-.543-.919-1.077-1.755-1.917-3.186-1.917-3.266 0-.054-.076-.189-.17-.299-.385-.457-1.157-1.715-1.16-1.89-.002-.103-.117-.282-.256-.398-.14-.115-.379-.481-.533-.812-.154-.331-.326-.639-.382-.685-.056-.046-.569-.871-1.14-1.833-1.877-3.163-1.684-3.777-1.689 5.375l-.003 7.958h-18.835l.042-23.208.043-23.209h18.666l.084 8 .083 8 .542-.877c.298-.483.541-.952.541-1.042 0-.09.061-.164.136-.164.075 0 .261-.244.413-.542.153-.298.465-.841.694-1.208.229-.367.578-.967.776-1.333.198-.367.41-.705.472-.75.062-.046.401-.609.755-1.25.353-.642.695-1.205.759-1.25.065-.046.279-.384.478-.75.198-.367.506-.892.684-1.167.178-.275.486-.8.684-1.167.199-.366.407-.704.463-.75.057-.045.246-.346.421-.666.175-.321.556-.959.846-1.417.29-.458.655-1.04.811-1.292l.283-.458h10.246c9.764 0 10.246.014 10.246.301 0 .261-.34.904-1.123 2.127a29.4 29.4 0 0 0-.544.905c-.185.321-.41.696-.501.834-.31.471-1.488 2.417-2.169 3.583a57.93 57.93 0 0 1-1.17 1.917c-.268.412-.545.864-.615 1.004-.07.14-.578.99-1.128 1.89-1.118 1.828-1.593 2.62-2.012 3.356-.156.275-.33.537-.386.583-.056.046-.233.346-.393.667-.248.499-1.257 2.187-1.791 3-.091.137-.325.55-.522.916-.197.367-.407.705-.467.75-.49.371-1.029 1.893-.718 2.028.07.031.449.581.842 1.222.393.642.784 1.279.87 1.417.488.78 1.778 2.954 1.88 3.167.065.137.34.587.611 1 .27.412.644 1.012.829 1.333.186.321.525.883.752 1.25.228.367.567.929.755 1.25.188.321.902 1.483 1.588 2.583.685 1.1 1.338 2.188 1.451 2.417.112.229.252.454.31.5.059.046.267.383.464.75.196.367.656 1.143 1.022 1.725.366.582.665 1.117.665 1.188 0 1.043 1.048-.216 1.422-1.71.063-.249.169-.453.236-.453.068 0 .217-.319.333-.708.115-.39.357-1.035.538-1.433.18-.398.556-1.298.835-2 .279-.702.564-1.351.633-1.442.07-.092.219-.467.333-.834.114-.366.3-.816.413-1 .114-.183.304-.633.423-1 .118-.366.262-.704.318-.75.056-.046.244-.496.417-1s.369-.991.435-1.083c.066-.092.216-.467.333-.833.116-.367.314-.815.438-.996.309-.449.284-.851-.087-1.386-.172-.248-.858-1.389-1.524-2.535a117.085 117.085 0 0 0-1.48-2.5 10.893 10.893 0 0 1-.518-.917c-.136-.275-.292-.537-.345-.583-.054-.046-.387-.608-.741-1.25-.353-.642-.69-1.204-.749-1.25-.059-.046-.396-.615-.749-1.265l-.642-1.182 1.185-1.985c.651-1.091 1.277-2.191 1.39-2.443.114-.252.261-.458.328-.458s.244-.282.394-.625c.149-.344.683-1.3 1.187-2.125s1.03-1.725 1.17-2c.139-.275.473-.838.741-1.25.268-.413.6-.975.737-1.25.138-.275.477-.875.754-1.334.277-.458.818-1.395 1.203-2.083.384-.687.748-1.288.81-1.333.061-.046.216-.285.345-.53.276-.527 1.744-3.087 2.265-3.95.2-.332.529-.904.73-1.27.202-.367.413-.705.47-.75.056-.046.236-.346.399-.667.459-.902 1.027-1.908 1.13-2 .051-.046.382-.608.735-1.25.354-.642.687-1.204.741-1.25.053-.046.24-.346.414-.667.729-1.343 1.831-3.256 1.92-3.333.053-.046.228-.346.39-.667.161-.321.48-.883.709-1.25.229-.366.603-1.004.831-1.416.228-.413.584-1.024.79-1.359.207-.335.86-1.46 1.451-2.5.591-1.04 1.119-1.929 1.174-1.975.105-.088 1.538-2.574 1.97-3.416.14-.275.309-.538.374-.584.065-.046.258-.358.43-.693 1.406-2.757 1.395-2.754 2.552-.682m-1.36 3.332c-.142.161-.31.462-.372.667-.063.206-.207.469-.322.584-.114.115-.323.434-.466.709-.23.445-1.219 2.152-2.252 3.888-.2.337-.529.912-.73 1.279-.202.366-.413.704-.47.75-.056.045-.236.345-.399.666-.473.931-1.028 1.91-1.134 2-.054.046-.387.609-.741 1.25-.353.642-.684 1.205-.735 1.25-.051.046-.236.346-.41.667-.781 1.438-1.833 3.257-1.929 3.333-.058.046-.243.384-.413.75-.169.367-.359.704-.422.75-.063.046-.404.609-.757 1.25-.354.642-.685 1.204-.736 1.25-.051.046-.243.359-.426.696-.921 1.69-2.483 4.398-2.58 4.471-.061.046-.425.646-.81 1.333-.384.688-.886 1.55-1.115 1.917-.229.367-.569.967-.757 1.333a42.72 42.72 0 0 1-1.153 2c-.447.734-1.173 1.962-1.615 2.73-.442.769-.954 1.645-1.137 1.949-.183.303-.665 1.137-1.071 1.853-.406.716-.781 1.339-.834 1.385-.052.046-.227.346-.389.667-.162.32-.547.993-.856 1.493-.506.82-.584 1.264-.264 1.507.06.045.398.608.752 1.25.353.641.685 1.204.737 1.25.052.045.244.383.427.75.182.366.369.704.415.75.196.194 1.144 1.833 1.245 2.152.061.191.171.348.246.348.074 0 .233.243.354.541.12.298.269.579.33.625.061.046.238.33.392.631.314.614.508.589.677-.085.063-.251.297-.854.519-1.34.222-.485.403-.925.403-.977 0-.099.172-.497.901-2.093.238-.522.433-.988.433-1.037 0-.049.178-.485.397-.969.218-.484.451-1.067.517-1.296a3.59 3.59 0 0 1 .328-.75c.114-.184.305-.634.424-1 .12-.367.312-.817.428-1 .116-.184.304-.652.418-1.042.114-.39.27-.708.347-.708.078 0 .141-.132.142-.292.001-.16.186-.667.412-1.125.225-.458.412-.887.415-.953.003-.066.184-.516.402-1 .219-.484.451-1.068.517-1.297.067-.229.214-.567.328-.75.114-.183.305-.633.425-1 .119-.367.312-.817.427-1 .116-.183.304-.652.418-1.042.114-.389.261-.708.327-.708s.161-.206.212-.458c.051-.252.291-.89.533-1.417l.44-.958h19.766l.211.754c.116.415.271.791.343.836.072.044.222.361.332.704.205.639.844 2.132 1.23 2.872.12.23.313.717.43 1.084.116.366.313.814.438.995.124.181.226.422.226.537 0 .114.178.604.396 1.088.217.484.598 1.367.847 1.963.248.596.553 1.308.677 1.583.64 1.422 1.233 2.884 1.335 3.292.063.252.169.458.237.458.067 0 .258.45.425 1 .166.55.356 1 .421 1s.214.34.33.755c.116.414.27.79.342.835.072.044.259.474.416.954.157.48.341.948.41 1.04.07.091.364.766.655 1.5.669 1.684.75 1.759 1.122 1.043.626-1.203 1.102-2.046 1.201-2.127.056-.045.234-.346.396-.666.161-.321.48-.884.709-1.25.229-.367.576-.967.771-1.334.195-.366.405-.704.467-.75.061-.045.211-.327.331-.625.121-.298.28-.541.354-.541.075 0 .188-.169.252-.375.064-.207.262-.582.439-.834.178-.252.251-.458.163-.458s-.283-.281-.432-.625c-.15-.344-.496-.962-.768-1.375a12.778 12.778 0 0 1-.764-1.333c-.148-.321-.325-.621-.393-.667-.068-.046-.454-.672-.856-1.391-.403-.719-.883-1.557-1.066-1.862-.184-.305-.709-1.206-1.167-2.001a139.74 139.74 0 0 0-1.202-2.055 25.68 25.68 0 0 1-.633-1.108 69.573 69.573 0 0 0-1.159-2c-1.099-1.839-3.054-5.215-3.506-6.05-.183-.339-.377-.654-.431-.7-.054-.046-.387-.608-.74-1.25-.354-.641-.691-1.204-.749-1.25-.058-.046-.221-.308-.362-.583-.394-.771-1.859-3.323-1.961-3.417-.05-.046-.24-.358-.424-.695-.311-.57-1.718-3.04-2.26-3.965a4.656 4.656 0 0 0-.422-.611c-.1-.11-.283-.45-.407-.756s-.27-.594-.326-.639c-.094-.078-.743-1.155-1.33-2.208-.14-.251-.621-1.076-1.069-1.833a51.975 51.975 0 0 1-1.07-1.876c-.141-.275-.309-.537-.375-.583-.112-.08-.312-.439-1.074-1.931-.556-1.089-.808-1.301-1.119-.946M0 35.88c0 .229.39.839.869 1.36.164.177.298.419.298.536 0 .117.15.293.333.391.183.098.333.287.333.421 0 .133.15.336.334.451.183.114.333.284.333.376.001.093.225.431.5.752.275.32.499.634.5.696 0 .062.094.212.208.334.115.121.49.595.834 1.053l.917 1.219c.16.212.422.531.583.708.16.178.291.394.291.48 0 .087.132.257.292.378.291.219.609.657.823 1.132.063.137.25.348.416.467.166.12.303.31.303.422 0 .112.131.328.291.48.161.152.42.45.576.662l1.209 1.635c.508.687.924 1.305.924 1.375 0 .069 22.422.125 49.826.125h49.827l.207-.708c.114-.39.256-.746.316-.792.06-.045.273-.42.472-.833.519-1.074.886-1.737 1.015-1.833.061-.046.256-.346.433-.667.176-.321.414-.643.529-.717a.505.505 0 0 0 .208-.38c0-.136.115-.291.256-.345.141-.054.359-.296.485-.537.257-.491 2.429-2.724 3.463-3.559.371-.3.863-.714 1.093-.92.23-.207.477-.375.549-.375.071 0 .233-.103.359-.229.125-.125.487-.361.803-.523.317-.162.613-.341.659-.397.162-.197 2.638-1.351 2.9-1.351.147 0 .266-.063.266-.139 0-.076.563-.279 1.25-.45.688-.171 1.25-.371 1.25-.445 0-.073.113-.133.25-.133.138 0 .25-.075.25-.167 0-.11-21.416-.166-63.916-.166-51.756 0-63.917.04-63.917.213m272.167-.067c0 .286.433.484 1.708.781.71.165 1.292.352 1.292.415s.337.209.75.324c.412.116.75.27.75.342 0 .072.375.256.833.408.458.153.833.332.833.4 0 .067.267.249.592.404.326.155.682.36.792.456.11.095.612.475 1.116.843.946.692 4.334 3.947 4.334 4.164 0 .11.322.53 1 1.303.137.157.394.543.57.858.177.315.372.61.433.656.129.096.496.759 1.015 1.833.199.413.412.788.472.833.06.046.202.402.316.792l.207.708h99.479l.295-.455c.163-.251.409-.583.546-.738.405-.458.591-.703.93-1.225.295-.455.514-.723 1.161-1.429.133-.145.242-.32.242-.389 0-.068.263-.445.584-.836.321-.392.583-.78.583-.863 0-.083.15-.245.333-.359.184-.115.334-.283.334-.374 0-.091.131-.31.291-.488.365-.403.651-.775 1.803-2.344a63.222 63.222 0 0 1 1.325-1.75c.225-.275.409-.575.411-.668.002-.092.153-.262.336-.376.184-.115.334-.295.334-.401 0-.107.117-.312.26-.457.522-.531 1.573-2.054 1.573-2.281 0-.2-9.251-.233-63.917-.233-36.554 0-63.916.062-63.916.146M13.668 54.292c.002.14 1.629 2.363 2.26 3.087.098.112.323.428.5.702.177.273.421.611.543.75.64.732 2.696 3.526 2.696 3.664 0 .088.15.24.333.338.183.098.333.291.333.428s.11.292.244.343c.134.051.285.223.335.382.051.159.223.433.384.61.161.176.591.733.956 1.237.365.504.755 1.029.866 1.167.217.27 1.041 1.344 1.51 1.969.159.212.401.519.539.681.137.163.333.439.434.615.294.506 85.066.584 85.066.078 0-.178-.063-.362-.139-.409-.076-.047-.24-.52-.365-1.051-.125-.532-.28-1.004-.344-1.05-.154-.109-.652-3.267-.652-4.135 0-.373-.075-.725-.167-.781-.095-.059-.167-.888-.167-1.917s.072-1.858.167-1.917c.092-.056.167-.417.167-.801.001-.384.112-1.374.247-2.199.136-.825.248-1.593.25-1.708.002-.166-9.707-.208-47.997-.208-26.4 0-48 .056-47.999.125m276.728.5c.059.343.188 1.375.287 2.291.099.917.248 1.797.332 1.956.207.394.194 3.582-.015 3.711-.092.057-.167.439-.167.851 0 .885-.509 4.112-.668 4.232-.06.046-.229.534-.375 1.084a52.14 52.14 0 0 1-.381 1.375l-.115.375H374.155l.185-.346c.102-.191.311-.486.464-.656.154-.171.409-.484.568-.696a125.55 125.55 0 0 1 1.51-1.969c.111-.138.501-.663.866-1.167s.795-1.061.956-1.237c.161-.177.333-.451.384-.61.05-.159.201-.331.335-.382a.401.401 0 0 0 .244-.343c0-.137.15-.33.333-.428.183-.098.333-.249.333-.336 0-.133.767-1.196 2.129-2.951.453-.584.827-1.076 1.363-1.796.273-.367.612-.817.753-1 1.003-1.308 1.747-2.352 1.751-2.458.002-.069-21.605-.125-48.017-.125H290.29l.106.625m-62.866 3.416a16.24 16.24 0 0 1-.611 1.042c-.233.367-.576.967-.764 1.333-.188.367-.75 1.342-1.25 2.167-.5.825-.982 1.67-1.071 1.877a5.76 5.76 0 0 1-.477.834c-1.67 2.41-2.012 3.338-1.547 4.208.171.32.367.769.436.998.07.229.305.812.524 1.296.218.484.397.947.397 1.028 0 .082.111.361.247.62.383.732 1.214 2.754 1.341 3.264.063.252.172.458.241.458.07 0 .222.34.339.755.116.414.27.791.342.835.073.045.222.362.332.704.109.343.377 1.019.595 1.503.218.484.396.973.396 1.088 0 .114.102.356.226.537.124.18.305.553.403.828.129.363.182-3.109.191-12.625.007-7.218-.012-13.125-.043-13.125-.031 0-.142.169-.247.375M225.833 71.5c0 2.378-.168 3.18-.404 1.922-.06-.318-.202-.674-.315-.792-.522-.539-.612-1.942-.147-2.292.064-.048.246-.369.405-.713.435-.939.461-.831.461 1.875m-32.01 7.208c-.104.39-.249.784-.322.875-.074.092-.251.542-.394 1-.421 1.347-.93 2.796-1.17 3.334-.661 1.477-.607 3.416.095 3.416.074 0 .135.068.135.151 0 .124.843 1.608 1.95 3.433.112.183.337.596.501.916.164.321.345.621.401.667.057.046.267.383.468.75s.587 1.042.857 1.5a24.9 24.9 0 0 1 .695 1.25c.112.229.243.454.291.5.192.183 1.145 1.827 1.249 2.152.06.192.172.348.247.348.076 0 .252.285.392.634.552 1.38.843 1.189 2.17-1.418.168-.33.411-.706.542-.836.13-.131.237-.302.237-.381 0-.134.98-1.814 1.166-1.999.046-.046.233-.383.415-.75.183-.367.375-.704.427-.75.052-.046.384-.608.737-1.25.354-.642.691-1.204.75-1.25.059-.046.208-.333.332-.639.124-.306.312-.643.418-.75.106-.107.484-.719.839-1.361s.688-1.204.739-1.25c.525-.468.538-1.875.023-2.583-.067-.092-.26-.655-.43-1.25-.169-.596-.36-1.159-.424-1.25-.063-.092-.207-.467-.318-.834a12.338 12.338 0 0 0-.426-1.166 7.035 7.035 0 0 1-.342-1c-.226-.951.008-.917-6.254-.917h-5.806l-.19.708M97.404 92.056c-.047.122.229.553.614.958 1.594 1.677 6.846 7.127 8.351 8.665l1.619 1.654h31.923c17.557 0 31.922-.058 31.922-.13 0-.072.207-.256.459-.408.252-.153.84-.638 1.307-1.078.466-.44 1.32-1.213 1.897-1.717s1.433-1.271 1.902-1.704c2.261-2.089 3.167-2.9 3.495-3.129.197-.138.67-.55 1.051-.917.381-.367.999-.929 1.374-1.249.375-.32.682-.713.682-.875 0-.394-86.445-.464-86.596-.07m118.429.107c0 .181.201.461.446.621.245.161.759.594 1.143.962a66.916 66.916 0 0 0 1.842 1.671c.629.55 1.479 1.3 1.889 1.666.41.367.862.765 1.004.884.143.12.681.608 1.197 1.084.515.476 1.409 1.278 1.986 1.782a91.756 91.756 0 0 1 1.897 1.707l.846.79 31.964.002 31.965.001 1.619-1.658c1.357-1.389 5.535-5.723 8.335-8.647.394-.411.677-.848.63-.971-.164-.427-86.763-.321-86.763.106" fill="#1c4c9c"/><path d="M126.75 44.873c-.05.207-.071 9.114-.046 19.794l.046 19.416 6.042.044 6.043.044-.043-19.794-.042-19.794-5.955-.043-5.954-.044-.091.377m24.984 3.169a4086.11 4086.11 0 0 1-3.505 5.791l-3.256 5.375a1234.69 1234.69 0 0 1-2.425 4c-.778 1.272-1.322.123 4.95 10.459.584.962 2.215 3.662 3.625 6 1.41 2.337 2.62 4.307 2.689 4.377.069.07 2.981.107 6.471.083l6.345-.044-1.163-1.916-2.176-3.584a7113.172 7113.172 0 0 1-8.126-13.431c-.358-.6-.419-.834-.284-1.084.163-.302.79-1.343 5.367-8.901 2.971-4.908 5.759-9.518 6.123-10.125l.325-.542h-12.822l-2.138 3.542m40.484-3.334c-.086.115-.37.734-.631 1.375a90.585 90.585 0 0 1-.771 1.834c-.304.688-.568 1.31-1.252 2.958l-.795 1.917c-.219.527-.675 1.633-1.013 2.458a94.44 94.44 0 0 1-.841 2c-.231.507-.467 1.064-1.184 2.792a1236.315 1236.315 0 0 1-2.735 6.541 505.21 505.21 0 0 0-1.893 4.542c-.218.527-1.502 3.583-2.852 6.792-1.35 3.208-2.492 5.927-2.538 6.041-.065.165 1.25.209 6.24.209h6.323l.514-1.459c.283-.802.899-2.546 1.37-3.875.472-1.329.984-2.791 1.14-3.25l.283-.833 8.274-.043c7.764-.041 8.28-.025 8.386.25.385.992 1.364 3.696 2.265 6.251l1.043 2.959h6.308c3.469 0 6.308-.029 6.308-.064 0-.034-.177-.466-.393-.958-.216-.492-.597-1.383-.848-1.978a101.19 101.19 0 0 0-.678-1.584 95.46 95.46 0 0 1-.801-1.916c-.318-.78-.798-1.942-1.067-2.584a65553.16 65553.16 0 0 0-9.983-23.791l-.795-1.917c-.219-.527-.668-1.617-.998-2.421-.33-.805-.715-1.686-.856-1.958l-.257-.496h-7.558c-5.853 0-7.594.047-7.715.208m39.115 19.627V84.17l7.79-.043 7.79-.044 1.085-1.925c.597-1.059 3.635-6.476 6.752-12.038 3.117-5.561 5.723-10.113 5.792-10.116.068-.002.125 5.434.125 12.079v12.084h12V44.5l-7.709.001-7.708.002-2.514 4.457c-1.383 2.451-4.413 7.832-6.734 11.957-2.321 4.125-4.321 7.609-4.444 7.744-.189.204-.225-1.722-.225-11.959V44.5h-12v19.835m-31.095-12.043c.059.252.248.833.421 1.291.618 1.644 4.063 11.348 4.275 12.042l.217.708h-10.507l.116-.375c.085-.274 4.403-12.325 4.986-13.916.131-.356.38-.23.492.25" fill="#e41d24"/><path d="M198.285 10.628A514.63 514.63 0 0 1 195.77 15l-4.182 7.167a16447.761 16447.761 0 0 1-6.422 11 9809.712 9809.712 0 0 1-7.003 12c-6.643 11.348-6.496 11.09-6.496 11.428 0 .149.257.695.571 1.213 1.535 2.529 6.262 10.74 6.262 10.876 0 .134-3.093 7.648-4.246 10.316-.218.504-.746 1.779-1.173 2.833a101.193 101.193 0 0 1-1.096 2.616c-.175.385-.318.778-.318.875 0 .439-.488.104-.898-.616a133.3 133.3 0 0 0-1.687-2.791 175.29 175.29 0 0 1-1.915-3.167 155.585 155.585 0 0 0-1.764-2.917c-.596-.962-1.65-2.687-2.341-3.833a743.54 743.54 0 0 0-2.484-4.083c-1.62-2.642-2.078-3.432-2.078-3.588 0-.072.748-1.356 1.663-2.854.914-1.499 1.966-3.25 2.337-3.892.647-1.119 4.775-7.956 7.967-13.196.837-1.374 1.57-2.623 1.629-2.776.099-.257-.633-.277-10.037-.27l-10.142.008-1.102 1.867a1117.4 1117.4 0 0 1-4.483 7.451A870.484 870.484 0 0 0 142.516 57l-.433.75-.043-8.208-.043-8.209h-18.498l.042 22.959.042 22.958h18.334l.083-8.167.083-8.166 1.019 1.666c.56.917 1.47 2.417 2.021 3.334 2.994 4.978 6.755 11.177 6.825 11.25.044.045 8.515.12 18.824.166l18.744.084 2.63 4.5c1.446 2.475 3.478 5.962 4.515 7.75 3.514 6.058 3.065 5.676 4.256 3.619.458-.792 1.328-2.287 1.933-3.321.605-1.035 1.775-3.044 2.601-4.465.825-1.421 2.048-3.521 2.717-4.667a650.277 650.277 0 0 0 1.621-2.791l.406-.709 19.111-.002c10.511-.002 19.193-.058 19.293-.125.1-.068 1.15-1.833 2.333-3.923a2457.258 2457.258 0 0 1 4.651-8.186c.917-1.612 1.722-2.93 1.79-2.93.068 0 .143 3.393.167 7.541l.043 7.542 9.125.043 9.125.043V41.331l-10.286.043-10.286.043-1.286 2.25c-.707 1.237-2.66 4.687-4.339 7.666l-3.053 5.417-.043-7.708-.043-7.709H228V48.7c0 5.319-.051 7.316-.182 7.185-.1-.1-.649-.996-1.221-1.992a712.766 712.766 0 0 0-2.235-3.851 1725.7 1725.7 0 0 1-2.383-4.084l-1.479-2.541c-.161-.275-.814-1.4-1.453-2.5-.638-1.1-2.194-3.763-3.457-5.917a1982.79 1982.79 0 0 1-3.553-6.083 1496.023 1496.023 0 0 0-4.723-8.084 446.094 446.094 0 0 1-2.23-3.833c-3.064-5.342-5.044-8.586-5.26-8.622-.153-.024-.716.799-1.539 2.25m2.813 3.334c.558.983 2.201 3.813 3.651 6.288a4500.328 4500.328 0 0 1 5.746 9.833l2.697 4.625 2.308 3.959a9493.405 9493.405 0 0 1 9.607 16.5c.915 1.58.981 1.225-.799 4.29a3083.79 3083.79 0 0 0-2.73 4.71c-.663 1.146-1.302 2.083-1.42 2.083-.119 0-.621-.974-1.118-2.167a1727.03 1727.03 0 0 0-1.992-4.75c-.598-1.42-1.308-3.108-1.576-3.75a339.42 339.42 0 0 0-.808-1.916c-.176-.413-.89-2.1-1.586-3.75l-1.934-4.584c-.367-.871-.85-2.005-1.073-2.521-.222-.515-.404-1.022-.404-1.126 0-.139-2.582-.177-9.786-.146l-9.785.043-.72 1.75a356.88 356.88 0 0 1-1.04 2.5c-.176.413-.555 1.313-.841 2a99.099 99.099 0 0 1-.745 1.75 97.437 97.437 0 0 0-.839 2c-.6 1.463-.977 2.375-1.828 4.417l-.814 1.958c-.717 1.728-.953 2.285-1.184 2.792-.254.56-1.286 3.063-1.784 4.325-.709 1.8-.361 2.137-3.699-3.575a248.127 248.127 0 0 0-2.272-3.833c-.692-1.103-.906-.518 2.05-5.584.642-1.1 1.674-2.862 2.294-3.916a2684.57 2684.57 0 0 0 5.661-9.667l3.242-5.583c1.172-2.017 2.299-3.929 2.506-4.25.207-.321.803-1.334 1.326-2.25.522-.917 1.216-2.117 1.543-2.667.569-.957 1.462-2.484 4.072-6.958 3.232-5.54 2.733-5.193 4.074-2.83m-62.306 50.413-.042 19.875h-12l-.042-19.875-.043-19.875h12.17l-.043 19.875m27.826-19.667c-.047.115-.724 1.259-1.505 2.542-.781 1.283-1.94 3.196-2.575 4.25-.996 1.654-4.829 7.973-7.01 11.559-.767 1.26-.798 1.385-.465 1.862.241.346 4.291 7.01 7.189 11.829.937 1.558 2.313 3.835 3.058 5.06.744 1.225 1.312 2.293 1.262 2.375-.11.178-12.41.198-12.666.021-.184-.128-1.32-1.951-4.28-6.873-.965-1.604-2.938-4.866-4.384-7.25a499.947 499.947 0 0 1-3.035-5.043l-.404-.71 1.078-1.79c.593-.985 2.147-3.553 3.454-5.707 1.307-2.154 2.692-4.441 3.077-5.083 2.196-3.655 4.151-6.86 4.296-7.042.128-.16 1.649-.208 6.58-.208 5.066 0 6.397.044 6.33.208m41.381.625c.164.413.486 1.2.714 1.75.229.55.693 1.675 1.031 2.5.338.825.715 1.725.837 2 .306.685 1.242 2.909 2.911 6.917.477 1.146.932 2.233 1.011 2.417.079.183.377.896.662 1.583.284.688.66 1.587.835 2 .175.412.552 1.313.838 2 .286.688.62 1.475.742 1.75 1.556 3.513 6.573 15.805 6.499 15.924-.16.258-12.333.21-12.532-.049-.088-.115-.552-1.333-1.03-2.708a292.182 292.182 0 0 0-1.27-3.584c-.219-.596-.562-1.552-.762-2.125l-.363-1.041H191.699l-.198.541a413.996 413.996 0 0 0-2.364 6.709c-.374 1.1-.755 2.093-.846 2.208-.127.16-1.614.208-6.413.208h-6.247l.111-.442c.096-.383 1.353-3.493 2.011-4.974.122-.275.456-1.063.742-1.75.286-.688.664-1.588.838-2 .175-.413.536-1.275.801-1.917.266-.642.799-1.917 1.185-2.833.862-2.051 1.209-2.881 1.744-4.167.985-2.367 1.477-3.532 1.687-4 .124-.275.501-1.175.839-2 .338-.825.794-1.931 1.013-2.458l.796-1.917c.75-1.808.957-2.293 1.279-2.998.178-.389.323-.749.323-.801 0-.052.143-.409.317-.793.175-.385.77-1.787 1.323-3.116.553-1.33 1.124-2.699 1.269-3.044l.264-.626 7.763.043 7.764.043.299.75m35.501 11.25c.065 9.421.126 11.929.283 11.667.11-.183 3.155-5.583 6.768-12l6.569-11.667 7.721-.043c6.066-.034 7.749.002 7.854.167.174.274.174 39.145 0 39.42-.105.165-1.426.201-6.04.167l-5.905-.044-.043-12.042c-.023-6.623-.098-12.04-.166-12.037-.069.002-1.999 3.351-4.291 7.442a6766.695 6766.695 0 0 1-5.726 10.205 478.947 478.947 0 0 0-2.855 5.099c-.303.55-.624 1.093-.713 1.208-.172.22-14.967.322-15.526.107-.238-.091-.263-2.001-.263-19.919V44.496l6.125.044 6.125.043.083 12m-43.742-4.403c-.048.13-1.204 3.349-2.569 7.153l-2.483 6.917 2.658.046c1.461.025 3.804.025 5.206 0l2.548-.046-1.139-3.167a728.199 728.199 0 0 1-2.974-8.409c-.858-2.457-1.09-2.922-1.247-2.494M228 71.01c0 8.233-.061 13.805-.151 13.75-.083-.052-.265-.412-.404-.802-.229-.64-.597-1.528-2.817-6.791a345 345 0 0 1-1.045-2.5c-.207-.505-.767-1.854-1.244-3a134.044 134.044 0 0 1-1.035-2.539c-.181-.49-.309-.236 2.98-5.878.642-1.1 1.599-2.75 2.127-3.667 1.192-2.069 1.409-2.416 1.51-2.416.043 0 .079 6.229.079 13.843m-22.045 7.032c.09.114.434.995.764 1.958.33.962.938 2.715 1.351 3.894l.75 2.145-.804 1.355c-.442.746-1.328 2.256-1.968 3.356l-2.333 4c-.643 1.1-1.723 2.954-2.4 4.121-1.564 2.693-1.299 2.744-3.238-.621a1224.97 1224.97 0 0 0-4.96-8.52c-.974-1.661-1.852-3.199-1.95-3.417-.148-.328-.046-.771.592-2.563.423-1.192.908-2.579 1.077-3.083.169-.505.428-1.255.575-1.667l.34-.958c.056-.162 1.418-.209 6.057-.209 4.59 0 6.023.049 6.147.209" fill="#fafafa"/><path d="M217.979 38.917c.09.183.285.483.435.666l.271.334-.164-.334a4.204 4.204 0 0 0-.435-.666l-.271-.334.164.334m-94.569 2.458c-.043.115-.06 10.483-.036 23.042l.043 22.833.083-23.042c.046-12.673.062-23.041.036-23.041-.025 0-.082.093-.126.208m66.569.083c-.203.258-.198.268.036.085.203-.158 2.54-.217 9.917-.251l9.651-.045-9.688-.04c-9.056-.038-9.702-.021-9.916.251M276 64.217l.083 23.033.043-22.908c.023-12.599-.015-22.964-.084-23.033-.069-.069-.088 10.239-.042 22.908m-134-14.8c0 4.476.04 8.098.09 8.049.111-.111.101-15.997-.01-16.108-.044-.044-.08 3.582-.08 8.059m104.5-.5c0 4.201.041 7.598.09 7.549.111-.112.101-14.997-.01-15.108-.044-.044-.08 3.357-.08 7.559m-61.806 5.007c-.28.613-.226.743.076.186.141-.26.225-.504.187-.542-.038-.038-.157.122-.263.356m-3.834 9.166c-.279.613-.226.744.076.187.141-.26.226-.504.187-.542-.038-.039-.156.122-.263.355m38.652 1.827c0 .091.107.354.238.583.131.229.238.342.238.25 0-.092-.107-.354-.238-.583-.131-.229-.238-.342-.238-.25m-77.472 14.29-.04 8.124-9.292.044-9.291.045 9.297.04c7.313.031 9.313-.004 9.376-.168.044-.115.06-3.809.035-8.209l-.045-8-.04 8.124m83.638.21c0 .091.108.354.239.583.131.229.238.342.238.25 0-.092-.107-.354-.238-.583-.131-.229-.239-.342-.239-.25m-33.65 3.741c-.098.28-.142.509-.099.509.113 0 .427-.866.345-.949-.038-.037-.149.16-.246.44m-40.216 4.05c.216.275 1.285.29 18.833.251l18.605-.041-18.567-.043c-14.512-.034-18.625-.088-18.833-.251-.236-.184-.24-.174-.038.084m96.922-.042c-.108.108-6.859.181-19.242.209l-19.075.043 19.104.041c16.812.036 19.13.011 19.312-.209.232-.279.159-.342-.099-.084m8.742.21c.07.07 4.285.107 9.367.084l9.24-.043-9.366-.084c-5.152-.046-9.31-.026-9.241.043m-53.204 10.332-.3.542.344-.417c.304-.369.44-.666.303-.666-.026 0-.182.243-.347.541m-4.213 2.88c-.076.198-.15.211-.332.059-.189-.156-.214-.14-.13.079.141.368.353.345.57-.059.098-.184.136-.334.084-.334-.052 0-.139.115-.192.255" fill="#436dad"/><path d="M123.442 41.125c-.042.069 4.146.125 9.308.125s9.35-.056 9.308-.125c-.043-.069-4.231-.125-9.308-.125s-9.265.056-9.308.125m28.37.167c-.202.258-.198.268.037.084.203-.158 2.656-.217 10.5-.251l10.234-.044-10.271-.041c-9.612-.037-10.286-.021-10.5.252m76.118-.147c-.118.191-.138 14.369-.02 14.487.049.05.09-3.186.09-7.19v-7.281l9.317.045c5.125.024 9.283-.012 9.241-.081-.11-.177-18.519-.157-18.628.02m27.179-.02c-.042.069 4.671.125 10.474.125 5.804 0 10.517-.056 10.475-.125-.043-.069-4.756-.125-10.475-.125-5.718 0-10.431.056-10.474.125m-27.307 16.5c-.029.069-.014 6.163.033 13.542l.085 13.416.04-13.541c.022-7.448.007-13.542-.033-13.542-.041 0-.097.056-.125.125" fill="#21549c"/><path d="M200.583 9.333c.143.275.296.5.342.5.046 0-.033-.225-.175-.5s-.296-.5-.342-.5c-.046 0 .033.225.175.5m1.667 2.834c.142.275.296.5.342.5.046 0-.033-.225-.175-.5-.143-.275-.296-.5-.342-.5-.046 0 .033.225.175.5m1.229 2.083c.09.183.285.483.435.667l.271.333-.164-.333a4.166 4.166 0 0 0-.435-.667l-.271-.333.164.333m1.104 1.917c.143.275.296.5.342.5.046 0-.033-.225-.175-.5s-.296-.5-.342-.5c-.046 0 .033.225.175.5m.667 1.166c.142.275.296.5.342.5.046 0-.033-.225-.175-.5-.143-.275-.296-.5-.342-.5-.046 0 .033.225.175.5m.657 1.115c.142.292.34.582.442.645.223.138-.018-.337-.428-.843-.251-.309-.252-.295-.014.198m1.01 1.719c.142.275.296.5.342.5.045 0-.033-.225-.176-.5-.142-.275-.296-.5-.342-.5-.045 0 .033.225.176.5m.666 1.166c.143.275.296.5.342.5.046 0-.033-.225-.175-.5s-.296-.5-.342-.5c-.046 0 .033.225.175.5m.562.917c.09.183.286.483.435.667l.272.333-.164-.333a4.236 4.236 0 0 0-.435-.667l-.271-.333.163.333m-16.062 2.917c-.142.275-.221.5-.175.5.046 0 .2-.225.342-.5.142-.275.221-.5.175-.5-.046 0-.199.225-.342.5m-.666 1.166c-.143.275-.221.5-.176.5.046 0 .2-.225.342-.5.143-.275.221-.5.176-.5-.046 0-.2.225-.342.5m19.262.25c.206.367.446.742.533.834.25.261-.321-.795-.63-1.167-.153-.183-.109-.033.097.333m-19.929.917c-.142.275-.221.5-.175.5.046 0 .199-.225.342-.5.142-.275.221-.5.175-.5-.046 0-.2.225-.342.5m22.135 2.917c.141.275.381.65.533.833.153.183.109.033-.097-.333-.454-.809-.794-1.199-.436-.5m2.961 5c.206.366.446.741.533.833.25.262-.321-.794-.631-1.167-.152-.183-.108-.033.098.334m-30.574 1.458-.3.542.344-.417c.304-.37.44-.667.303-.667-.026 0-.182.244-.347.542M216.75 37c.142.275.296.5.342.5.046 0-.033-.225-.175-.5-.143-.275-.296-.5-.342-.5-.046 0 .033.225.175.5m-88.542 4.292c2.544.025 6.707.025 9.25 0 2.544-.026.463-.047-4.625-.047-5.087 0-7.168.021-4.625.047m33.834 0c5.568.024 10.125.086 10.125.137 0 .051-.08.257-.178.457-.152.311-.13.304.155-.05.533-.663.479-.666-10.144-.626l-10.083.037 10.125.045m70.666 0c2.544.025 6.707.025 9.25 0 2.544-.026.463-.047-4.625-.047-5.087 0-7.168.021-4.625.047m22.446.165c-.188.249-.187.262.012.085.182-.162 2.513-.209 10.45-.209h10.216l.043 22.959.043 22.958v-23l-.001-23-10.271-.043c-9.631-.04-10.284-.025-10.492.25m-65.121.076c-.11.11-.2.275-.2.366 0 .09.094.038.209-.117.19-.258 1.028-.285 9.958-.325l9.75-.043-9.758-.04c-7.413-.031-9.807.007-9.959.159m19.812.717c0 .092.107.354.238.583.131.23.239.342.239.25 0-.091-.108-.354-.239-.583-.131-.229-.238-.342-.238-.25m-28.262.917c-.142.275-.221.5-.175.5.046 0 .2-.225.342-.5.142-.275.221-.5.175-.5-.046 0-.199.225-.342.5m-10.519.208c-.574.973-.612 1.056-.319.708.338-.403.63-.916.521-.916-.044 0-.135.093-.202.208m49.44.083c.002.069.156.313.343.542l.34.417-.265-.542c-.251-.515-.426-.69-.418-.417m33.246.375c-.142.275-.221.5-.175.5.046 0 .199-.225.342-.5.142-.275.221-.5.175-.5-.046 0-.2.225-.342.5M210.596 44c.061.229.18.529.265.667.108.173.121.123.043-.167a3.063 3.063 0 0 0-.265-.667c-.108-.173-.121-.123-.043.167m10.821 1c.142.275.296.5.342.5.045 0-.033-.225-.176-.5-.142-.275-.296-.5-.342-.5-.045 0 .033.225.176.5m9.83 19.333c0 10.954.02 15.436.045 9.959.024-5.477.024-14.44 0-19.917-.025-5.477-.045-.996-.045 9.958m12.127-7.625c-.022 6.669-.012 12.125.022 12.125.035 0 .166-.127.292-.282.153-.188.16-.241.021-.157-.164.098-.216-2.357-.251-11.843l-.044-11.968-.04 12.125m-73.31-11.666c-.574.973-.612 1.056-.319.708.338-.403.63-.917.521-.917-.044 0-.135.094-.202.209m102.683 19.375c0 10.816.02 15.217.045 9.778.024-5.438.024-14.288 0-19.666-.025-5.379-.045-.929-.045 9.888M188.36 45.424c-.279.613-.226.743.076.186.141-.26.226-.504.187-.542-.038-.038-.156.122-.263.356m22.818-.007c0 .091.108.354.239.583.131.229.238.342.238.25 0-.092-.107-.354-.238-.583-.131-.229-.239-.342-.239-.25M179.917 46c-.143.275-.221.5-.176.5.046 0 .2-.225.342-.5.143-.275.221-.5.176-.5-.046 0-.2.225-.342.5m42.166.167c.143.275.296.5.342.5.046 0-.033-.225-.175-.5s-.296-.5-.342-.5c-.046 0 .033.225.175.5m-34.5 1.109c-.14.334-.216.647-.169.694.048.047.086.045.086-.005 0-.05.114-.363.252-.695.139-.332.215-.603.169-.603-.046 0-.198.274-.338.609m35.146-.026a5.3 5.3 0 0 0 .516.833c.254.312.255.301.026-.166a5.359 5.359 0 0 0-.516-.834c-.254-.311-.255-.301-.026.167m-54.101.125a9.04 9.04 0 0 0-.445.792c-.283.584.231-.04.584-.709.291-.552.201-.606-.139-.083m43.384.042c0 .091.107.354.238.583.131.229.238.342.238.25 0-.092-.107-.354-.238-.583-.131-.229-.238-.342-.238-.25m-33.282.625c-.573.973-.611 1.056-.319.708.339-.403.631-.917.521-.917-.043 0-.134.094-.202.209m8.131.949c-.097.28-.142.509-.098.509.112 0 .427-.866.344-.948-.038-.038-.148.16-.246.439m-19.631.717c-.573.974-.611 1.057-.319.709.339-.404.631-.917.521-.917-.043 0-.134.094-.202.208m46.282 1.209c0 .091.107.354.238.583.131.229.238.342.238.25 0-.092-.107-.354-.238-.583-.131-.229-.238-.342-.238-.25m11.54.333c.141.275.381.65.533.833.152.184.109.034-.097-.333-.455-.809-.795-1.199-.436-.5m-39.692 1.34c-.279.613-.226.744.076.187.141-.26.226-.504.187-.542-.038-.039-.156.122-.263.355m28.985.327c0 .091.107.354.238.583.131.229.239.342.239.25 0-.092-.108-.354-.239-.583-.131-.229-.238-.342-.238-.25m-49.532.791c-.109.207-.307.563-.44.792-.232.4-.23.403.039.083.332-.395.798-1.25.681-1.25-.044 0-.171.169-.28.375m61.937.459c.142.275.296.5.342.5.046 0-.033-.225-.175-.5-.143-.275-.296-.5-.342-.5-.046 0 .033.225.175.5m-42.223.423c-.279.613-.226.744.076.187.141-.26.225-.504.187-.542-.038-.039-.156.122-.263.355m30.651.327c0 .091.108.354.239.583.131.229.238.342.238.25 0-.092-.107-.354-.238-.583-.131-.229-.239-.342-.239-.25m12.229.364c.142.292.34.583.442.645.223.138-.018-.336-.428-.843-.251-.309-.252-.295-.014.198m-43.657 1.161c-.14.335-.216.648-.169.695.047.047.086.044.086-.006 0-.049.113-.362.252-.694.139-.332.215-.604.169-.604-.046 0-.198.274-.338.609m-20.541-.067a4.133 4.133 0 0 0-.363.625c-.23.485.187.037.505-.542.186-.337.1-.388-.142-.083m52.636-.003c-.019.197.524 1.481.596 1.409.036-.036-.08-.395-.259-.798s-.33-.678-.337-.611m11.864 1.003c-.236.298-.567.958-.481.958.04 0 .227-.262.417-.583.344-.583.375-.768.064-.375m-44.765.986c-.15.384-.246.725-.213.759.033.033.186-.252.338-.634.153-.382.249-.723.214-.759-.035-.035-.188.25-.339.634m-.749 1.797c-.098.28-.142.509-.099.509.113 0 .427-.866.345-.949-.038-.037-.149.16-.246.44m43.369.884c-.574.973-.612 1.056-.319.708.338-.403.63-.917.521-.917-.044 0-.135.094-.202.209m-7.545.541c.003.092.15.467.326.834.177.366.274.479.217.25-.117-.472-.552-1.339-.543-1.084m-58.622 1.125c-.574.974-.611 1.057-.319.709.338-.404.63-.917.521-.917-.044 0-.135.094-.202.208m21.297 1.049c-.28.613-.226.744.076.187.141-.261.225-.505.187-.543-.038-.038-.157.122-.263.356m38.158-.174c.003.092.15.467.327.834.176.366.274.479.217.25-.118-.472-.552-1.339-.544-1.084m-60.241.361c-.15.151-.141.685.014.78.069.043.125-.14.125-.407 0-.266-.006-.484-.014-.484a.78.78 0 0 0-.125.111m64.517 1.264a9.188 9.188 0 0 0-.445.792c-.283.585.231-.039.584-.708.291-.553.201-.607-.139-.084m-43.132.22a9.75 9.75 0 0 1-.35.792c-.122.238-.125.306-.008.197.214-.2.738-1.417.61-1.417-.049 0-.163.193-.252.428m-20.845.209c.101.19.266.395.367.457.13.081.13.015-.002-.231-.102-.19-.267-.395-.367-.457-.131-.081-.13-.015.002.231M222.083 67c-.142.275-.221.5-.175.5.046 0 .2-.225.342-.5.142-.275.221-.5.175-.5-.046 0-.199.225-.342.5m-.672 1.178c-.146.281-.241.578-.213.659.029.081.178-.149.331-.511.331-.782.257-.874-.118-.148m-58.599 3.405c.09.184.286.484.435.667l.271.333-.163-.333a4.33 4.33 0 0 0-.435-.667l-.272-.333.164.333m94.483 8.037c.025 4.099.1 7.508.167 7.575.067.067.101-3.287.076-7.453-.024-4.167-.099-7.575-.166-7.575s-.102 3.354-.077 7.453m-34.53-6.953c.06.229.216.604.345.833l.236.417-.111-.417a4.26 4.26 0 0 0-.345-.833l-.236-.417.111.417m33.818.666c-.142.275-.221.5-.175.5.046 0 .2-.225.342-.5.142-.275.221-.5.175-.5-.046 0-.199.225-.342.5m-.666 1.167c-.143.275-.221.5-.176.5.046 0 .2-.225.342-.5.143-.275.221-.5.176-.5-.046 0-.2.225-.342.5m-32.405-.128c-.019.197.524 1.481.596 1.409.036-.036-.081-.395-.259-.798-.179-.403-.331-.678-.337-.611m31.738 1.295c-.142.275-.221.5-.175.5.046 0 .199-.225.342-.5.142-.275.221-.5.175-.5-.046 0-.2.225-.342.5m-30.905.705c-.019.197.524 1.481.596 1.409.036-.036-.08-.395-.259-.798s-.33-.678-.337-.611m30.238.461c-.142.275-.221.5-.175.5.046 0 .2-.225.342-.5.142-.275.221-.5.175-.5-.046 0-.199.225-.342.5m-88.5.167c.143.275.296.5.342.5.046 0-.033-.225-.175-.5s-.296-.5-.342-.5c-.046 0 .033.225.175.5m27.66 1.011c-.06.098-.065.223-.01.278.055.055.1.012.1-.095 0-.144 1.54-.194 6-.194h5.999l.249.542c.177.384.219.42.147.125-.21-.856-.041-.834-6.405-.834-4.049 0-6.005.058-6.08.178m60.013.253c-.156.238-.245.47-.198.516.046.046.204-.148.351-.431.324-.627.235-.676-.153-.085m-28.744-.181c0 .092.107.355.238.584.131.229.238.341.238.25 0-.092-.107-.354-.238-.584-.131-.229-.238-.341-.238-.25m-57.434 1.406c.139.27.329.537.421.594.093.057.011-.163-.182-.49-.422-.715-.594-.79-.239-.104m25.441.53c-.103.294-.158.564-.122.6.035.036.148-.176.251-.471.103-.294.158-.565.122-.6-.036-.036-.149.176-.251.471M252.75 80c-.142.275-.221.5-.175.5.046 0 .199-.225.342-.5.142-.275.221-.5.175-.5-.046 0-.2.225-.342.5m-45.988.5c.062.229.181.529.266.667.107.173.121.123.043-.167a3.06 3.06 0 0 0-.266-.667c-.107-.173-.12-.123-.043.167m45.321.667c-.142.275-.221.5-.175.5.046 0 .2-.225.342-.5.142-.275.221-.5.175-.5-.046 0-.199.225-.342.5m-83.104.583c.09.183.285.483.435.667l.271.333-.164-.333a4.166 4.166 0 0 0-.435-.667l-.271-.333.164.333m57.774.533c.25.598.414.868.414.682 0-.18-.507-1.298-.588-1.298-.046 0 .032.277.174.616m24.664.05c-.143.275-.221.5-.176.5.046 0 .2-.225.342-.5.143-.275.221-.5.176-.5-.046 0-.2.225-.342.5m-81.5 1c.142.275.296.5.342.5.045 0-.033-.225-.176-.5-.142-.275-.296-.5-.342-.5-.045 0 .033.225.176.5m80.666.5c-.142.275-.221.5-.175.5.046 0 .2-.225.342-.5.142-.275.221-.5.175-.5-.046 0-.199.225-.342.5m-23.25-.272c0 .198.478 1.272.567 1.272.045 0-.034-.281-.176-.625-.267-.645-.391-.849-.391-.647m19.569.437c-.103.103-3.056.182-7.825.21l-7.66.045 7.688.04c6.663.035 7.715.007 7.895-.21.231-.279.159-.342-.098-.085m-120.092.213c.07.069 2.785.107 6.034.083l5.906-.044-6.033-.083c-3.319-.046-5.977-.026-5.907.044m30.326.08c1.771.028 4.621.027 6.333 0 1.713-.027.264-.049-3.219-.049-3.483 0-4.885.022-3.114.049m21.667 0c1.77.028 4.62.027 6.333 0s.264-.049-3.219-.049c-3.484 0-4.885.022-3.114.049m35.905 0c1.719.028 4.532.028 6.25 0 1.719-.027.313-.049-3.125-.049-3.437 0-4.843.022-3.125.049m49.094 0c1.679.028 4.379.028 6 0 1.622-.027.248-.049-3.052-.049s-4.626.022-2.948.049m-53.889 3.584c-.221.456-.222.489-.01.208.139-.183.333-.427.431-.541.115-.135.119-.209.01-.209-.093 0-.287.244-.431.542m-.618 1c-.365.562-.692 1.232-.509 1.042.234-.243.922-1.417.83-1.417-.043 0-.187.169-.321.375m-1.712 2.958c-.142.275-.221.5-.175.5.046 0 .2-.225.342-.5.142-.275.221-.5.175-.5-.046 0-.199.225-.342.5m-.621 1.042a8.79 8.79 0 0 0-.445.792c-.283.584.231-.04.583-.709.291-.552.201-.606-.138-.083m-10.879 1.958c.143.275.296.5.342.5.046 0-.033-.225-.175-.5s-.296-.5-.342-.5c-.046 0 .033.225.175.5M196.75 96c.142.275.296.5.342.5.046 0-.033-.225-.175-.5-.143-.275-.296-.5-.342-.5-.046 0 .033.225.175.5m1 1.667c.142.275.296.5.342.5.046 0-.033-.225-.175-.5-.143-.275-.296-.5-.342-.5-.046 0 .033.225.175.5m.667 1.166c.142.275.296.5.342.5.045 0-.033-.225-.176-.5-.142-.275-.296-.5-.342-.5-.045 0 .033.225.176.5m3 3.5c-.143.275-.221.5-.176.5.046 0 .2-.225.342-.5.143-.275.221-.5.176-.5-.046 0-.2.225-.342.5m-1.341 2.345c-.06.098-.219.136-.352.085-.135-.052-.196-.02-.139.072.153.249.533.198.642-.085.11-.288.012-.335-.151-.072" fill="#8aa4cc"/></g></svg>